<?xml version="1.0" encoding="UTF-8" standalone="no"?>
<svg width="1003px" height="306px" viewBox="0 0 1003 306" version="1.1" xmlns="http://www.w3.org/2000/svg" xmlns:xlink="http://www.w3.org/1999/xlink" xmlns:sketch="http://www.bohemiancoding.com/sketch/ns">
    <!-- Generator: Sketch 3.3.2 (12043) - http://www.bohemiancoding.com/sketch -->
    <title>Artboard 1</title>
    <desc>Created with Sketch.</desc>
    <defs></defs>
    <g id="Page-1" stroke="none" stroke-width="1" fill="none" fill-rule="evenodd" sketch:type="MSPage">
        <g id="Artboard-1" sketch:type="MSArtboardGroup">
            <text id="Peoplesized" sketch:type="MSTextLayer" font-family="Open Sans" font-size="182" font-weight="bold" sketch:alignment="middle" letter-spacing="-10.8999996" fill="#155AAA">
                <tspan x="11.3862286" y="180">Peoplesize</tspan>
                <tspan x="857.441896" y="180">d</tspan>
            </text>
            <g id="Group" sketch:type="MSLayerGroup" transform="translate(372.000000, 200.000000)" fill="#646464">
                <path d="M10.4949091,61.1286187 L10.4949091,4.48901571 C10.4949091,2.13735162 8.57705976,0.230951198 6.21127273,0.230951198 C3.84548569,0.230951198 1.92763636,2.13735162 1.92763636,4.48901571 L1.92763636,61.1286187 C1.92763636,63.4802828 3.84548569,65.3866832 6.21127273,65.3866832 C8.57705976,65.3866832 10.4949091,63.4802828 10.4949091,61.1286187 L10.4949091,61.1286187 Z" id="Shape" sketch:type="MSShapeGroup"></path>
                <path d="M38.3385455,61.1286187 L38.3385455,28.0888503 C38.3385455,25.7371862 36.4206961,23.8307858 34.0549091,23.8307858 C31.6891221,23.8307858 29.7712727,25.7371862 29.7712727,28.0888503 L29.7712727,61.1286187 C29.7712727,63.4802828 31.6891221,65.3866832 34.0549091,65.3866832 C36.4206961,65.3866832 38.3385455,63.4802828 38.3385455,61.1286187 L38.3385455,61.1286187 Z" id="Shape" sketch:type="MSShapeGroup"></path>
                <path d="M66.1821818,61.1286187 L66.1821818,28.0888503 C66.1821818,25.7371862 64.2643325,23.8307858 61.8985455,23.8307858 C59.5327584,23.8307858 57.6149091,25.7371862 57.6149091,28.0888503 L57.6149091,61.1286187 C57.6149091,63.4802828 59.5327584,65.3866832 61.8985455,65.3866832 C64.2643325,65.3866832 66.1821818,63.4802828 66.1821818,61.1286187 L66.1821818,61.1286187 Z" id="Shape" sketch:type="MSShapeGroup"></path>
                <path d="M94.0258182,61.1286187 L94.0258182,28.0888503 C94.0258182,25.7371862 92.1079689,23.8307858 89.7421818,23.8307858 C87.3763948,23.8307858 85.4585455,25.7371862 85.4585455,28.0888503 L85.4585455,61.1286187 C85.4585455,63.4802828 87.3763948,65.3866832 89.7421818,65.3866832 C92.1079689,65.3866832 94.0258182,63.4802828 94.0258182,61.1286187 L94.0258182,61.1286187 Z" id="Shape" sketch:type="MSShapeGroup"></path>
                <path d="M124.011273,61.1286187 L124.011273,28.0888503 C124.011273,25.7371862 122.093423,23.8307858 119.727636,23.8307858 C117.361849,23.8307858 115.444,25.7371862 115.444,28.0888503 L115.444,61.1286187 C115.444,63.4802828 117.361849,65.3866832 119.727636,65.3866832 C122.093423,65.3866832 124.011273,63.4802828 124.011273,61.1286187 L124.011273,61.1286187 Z" id="Shape" sketch:type="MSShapeGroup"></path>
                <path d="M299.640364,61.1286187 L299.640364,4.48901571 C299.640364,2.13735162 297.722514,0.230951198 295.356727,0.230951198 C292.99094,0.230951198 291.073091,2.13735162 291.073091,4.48901571 L291.073091,61.1286187 C291.073091,63.4802828 292.99094,65.3866832 295.356727,65.3866832 C297.722514,65.3866832 299.640364,63.4802828 299.640364,61.1286187 L299.640364,61.1286187 Z" id="Shape" sketch:type="MSShapeGroup"></path>
                <path d="M327.484,61.1286187 L327.484,28.0888503 C327.484,25.7371862 325.566151,23.8307858 323.200364,23.8307858 C320.834577,23.8307858 318.916727,25.7371862 318.916727,28.0888503 L318.916727,61.1286187 C318.916727,63.4802828 320.834577,65.3866832 323.200364,65.3866832 C325.566151,65.3866832 327.484,63.4802828 327.484,61.1286187 L327.484,61.1286187 Z" id="Shape" sketch:type="MSShapeGroup"></path>
                <path d="M355.327636,61.1286187 L355.327636,28.0888503 C355.327636,25.7371862 353.409787,23.8307858 351.044,23.8307858 C348.678213,23.8307858 346.760364,25.7371862 346.760364,28.0888503 L346.760364,61.1286187 C346.760364,63.4802828 348.678213,65.3866832 351.044,65.3866832 C353.409787,65.3866832 355.327636,63.4802828 355.327636,61.1286187 L355.327636,61.1286187 Z" id="Shape" sketch:type="MSShapeGroup"></path>
                <path d="M385.313091,61.1286187 L385.313091,28.0888503 C385.313091,25.7371862 383.395242,23.8307858 381.029455,23.8307858 C378.663668,23.8307858 376.745818,25.7371862 376.745818,28.0888503 L376.745818,61.1286187 C376.745818,63.4802828 378.663668,65.3866832 381.029455,65.3866832 C383.395242,65.3866832 385.313091,63.4802828 385.313091,61.1286187 L385.313091,61.1286187 Z" id="Shape" sketch:type="MSShapeGroup"></path>
                <path d="M413.156727,61.1286187 L413.156727,28.0888503 C413.156727,25.7371862 411.238878,23.8307858 408.873091,23.8307858 C406.507304,23.8307858 404.589455,25.7371862 404.589455,28.0888503 L404.589455,61.1286187 C404.589455,63.4802828 406.507304,65.3866832 408.873091,65.3866832 C411.238878,65.3866832 413.156727,63.4802828 413.156727,61.1286187 L413.156727,61.1286187 Z" id="Shape" sketch:type="MSShapeGroup"></path>
                <path d="M156.138545,61.1286187 L156.138545,4.48901571 C156.138545,2.13735162 154.220696,0.230951198 151.854909,0.230951198 C149.489122,0.230951198 147.571273,2.13735162 147.571273,4.48901571 L147.571273,61.1286187 C147.571273,63.4802828 149.489122,65.3866832 151.854909,65.3866832 C154.220696,65.3866832 156.138545,63.4802828 156.138545,61.1286187 L156.138545,61.1286187 Z" id="Shape" sketch:type="MSShapeGroup"></path>
                <path d="M186.124,61.1286187 L186.124,28.0888503 C186.124,25.7371862 184.206151,23.8307858 181.840364,23.8307858 C179.474577,23.8307858 177.556727,25.7371862 177.556727,28.0888503 L177.556727,61.1286187 C177.556727,63.4802828 179.474577,65.3866832 181.840364,65.3866832 C184.206151,65.3866832 186.124,63.4802828 186.124,61.1286187 L186.124,61.1286187 Z" id="Shape" sketch:type="MSShapeGroup"></path>
                <path d="M213.967636,61.1286187 L213.967636,28.0888503 C213.967636,25.7371862 212.049787,23.8307858 209.684,23.8307858 C207.318213,23.8307858 205.400364,25.7371862 205.400364,28.0888503 L205.400364,61.1286187 C205.400364,63.4802828 207.318213,65.3866832 209.684,65.3866832 C212.049787,65.3866832 213.967636,63.4802828 213.967636,61.1286187 L213.967636,61.1286187 Z" id="Shape" sketch:type="MSShapeGroup"></path>
                <path d="M241.811273,61.1286187 L241.811273,28.0888503 C241.811273,25.7371862 239.893423,23.8307858 237.527636,23.8307858 C235.161849,23.8307858 233.244,25.7371862 233.244,28.0888503 L233.244,61.1286187 C233.244,63.4802828 235.161849,65.3866832 237.527636,65.3866832 C239.893423,65.3866832 241.811273,63.4802828 241.811273,61.1286187 L241.811273,61.1286187 Z" id="Shape" sketch:type="MSShapeGroup"></path>
                <path d="M269.654909,61.1286187 L269.654909,28.0888503 C269.654909,25.7371862 267.73706,23.8307858 265.371273,23.8307858 C263.005486,23.8307858 261.087636,25.7371862 261.087636,28.0888503 L261.087636,61.1286187 C261.087636,63.4802828 263.005486,65.3866832 265.371273,65.3866832 C267.73706,65.3866832 269.654909,63.4802828 269.654909,61.1286187 L269.654909,61.1286187 Z" id="Shape" sketch:type="MSShapeGroup"></path>
                <path d="M445.284,61.1286187 L445.284,4.48901571 C445.284,2.13735162 443.366151,0.230951198 441.000364,0.230951198 C438.634577,0.230951198 436.716727,2.13735162 436.716727,4.48901571 L436.716727,61.1286187 C436.716727,63.4802828 438.634577,65.3866832 441.000364,65.3866832 C443.366151,65.3866832 445.284,63.4802828 445.284,61.1286187 L445.284,61.1286187 Z" id="Shape" sketch:type="MSShapeGroup"></path>
                <path d="M588.785818,61.1286187 L588.785818,4.48901571 C588.785818,2.13735162 586.867969,0.230951198 584.502182,0.230951198 C582.136395,0.230951198 580.218545,2.13735162 580.218545,4.48901571 L580.218545,61.1286187 C580.218545,63.4802828 582.136395,65.3866832 584.502182,65.3866832 C586.867969,65.3866832 588.785818,63.4802828 588.785818,61.1286187 L588.785818,61.1286187 Z" id="Shape" sketch:type="MSShapeGroup"></path>
                <path d="M475.269455,61.1286187 L475.269455,28.0888503 C475.269455,25.7371862 473.351605,23.8307858 470.985818,23.8307858 C468.620031,23.8307858 466.702182,25.7371862 466.702182,28.0888503 L466.702182,61.1286187 C466.702182,63.4802828 468.620031,65.3866832 470.985818,65.3866832 C473.351605,65.3866832 475.269455,63.4802828 475.269455,61.1286187 L475.269455,61.1286187 Z" id="Shape" sketch:type="MSShapeGroup"></path>
                <path d="M503.113091,61.1286187 L503.113091,28.0888503 C503.113091,25.7371862 501.195242,23.8307858 498.829455,23.8307858 C496.463668,23.8307858 494.545818,25.7371862 494.545818,28.0888503 L494.545818,61.1286187 C494.545818,63.4802828 496.463668,65.3866832 498.829455,65.3866832 C501.195242,65.3866832 503.113091,63.4802828 503.113091,61.1286187 L503.113091,61.1286187 Z" id="Shape" sketch:type="MSShapeGroup"></path>
                <path d="M530.956727,61.1286187 L530.956727,28.0888503 C530.956727,25.7371862 529.038878,23.8307858 526.673091,23.8307858 C524.307304,23.8307858 522.389455,25.7371862 522.389455,28.0888503 L522.389455,61.1286187 C522.389455,63.4802828 524.307304,65.3866832 526.673091,65.3866832 C529.038878,65.3866832 530.956727,63.4802828 530.956727,61.1286187 L530.956727,61.1286187 Z" id="Shape" sketch:type="MSShapeGroup"></path>
                <path d="M560.942182,61.1286187 L560.942182,28.0888503 C560.942182,25.7371862 559.024332,23.8307858 556.658545,23.8307858 C554.292758,23.8307858 552.374909,25.7371862 552.374909,28.0888503 L552.374909,61.1286187 C552.374909,63.4802828 554.292758,65.3866832 556.658545,65.3866832 C559.024332,65.3866832 560.942182,63.4802828 560.942182,61.1286187 L560.942182,61.1286187 Z" id="Shape" sketch:type="MSShapeGroup"></path>
            </g>
        </g>
    </g>
</svg>